<?xml version="1.0" standalone="no"?>
<!DOCTYPE svg PUBLIC "-//W3C//DTD SVG 1.1//EN" "http://www.w3.org/Graphics/SVG/1.1/DTD/svg11.dtd" >
<svg xmlns="http://www.w3.org/2000/svg">
<metadata>
This is a custom SVG font generated by IcoMoon.
<iconset grid="14"></iconset>
</metadata>
<defs>
<font id="ArrowsCustom" horiz-adv-x="448" >
<font-face units-per-em="448" ascent="384" descent="-64" />
<missing-glyph horiz-adv-x="448" />
<glyph unicode="&#x61;" d="M 448.00,160.00c0.00,123.704-100.296,224.00-224.00,224.00C 100.282,384.00,0.00,283.704,0.00,160.00c0.00-123.718, 100.282-224.00, 224.00-224.00C 347.704-64.00, 448.00,36.282, 448.00,160.00z
	 M 112.00,160.00l 112.00,112.00l0.00-84.00 l 112.00,0.00 l0.00-56.00 l-112.00,0.00 l0.00-84.00 L 112.00,160.00z"  />
<glyph unicode="&#x62;" d="M0.00,160.00c0.00-123.704, 100.296-224.00, 224.00-224.00c 123.718,0.00, 224.00,100.296, 224.00,224.00c0.00,123.718-100.282,224.00-224.00,224.00C 100.296,384.00,0.00,283.718,0.00,160.00z M 336.00,160.00
	l-112.00-112.00l0.00,84.00 L 112.00,132.00 l0.00,56.00 l 112.00,0.00 L 224.00,272.00 L 336.00,160.00z"  />
<glyph unicode="&#x63;" d="M0.00,104.00L 224.00,104.00L 140.00,20.00L 224.00-64.00L 448.00,160.00L 224.00,384.00L 140.00,300.00L 224.00,216.00L0.00,216.00 z"  />
<glyph unicode="&#x64;" d="M 448.00,216.00L 224.00,216.00L 308.00,300.00L 224.00,384.00L0.00,160.00L 224.00-64.00L 308.00,20.00L 224.00,104.00L 448.00,104.00 z"  />
<glyph unicode="&#x67;" d="M 277.738,83.437c 6.003-6.07, 6.003-15.882,0.00-21.93c-6.003-6.07-15.702-6.07-21.706,0.00l-85.792,87.517
	c-6.003,6.07-6.003,15.882,0.00,21.93l 85.792,87.539c 6.003,6.07, 15.702,6.07, 21.706,0.00s 6.003-15.859,0.00-21.93L 207.402,160.00L 277.738,83.437z"  />
<glyph unicode="&#x68;" d="M 170.262,83.437c-6.003-6.07-6.003-15.882,0.00-21.93c 5.981-6.07, 15.702-6.07, 21.706,0.00l 85.792,87.517
	c 6.003,6.07, 6.003,15.882,0.00,21.93l-85.792,87.539c-6.003,6.07-15.702,6.07-21.706,0.00S 164.259,242.634, 170.24,236.586L 240.598,160.00L 170.262,83.437z"  />
<glyph unicode="&#x69;" d="M 322.538-6.163c 6.003-6.07, 6.003-15.859,0.00-21.93s-15.702-6.07-21.706,0.00l-175.392,177.117c-6.003,6.07-6.003,15.882,0.00,21.93
	l 175.392,177.139c 6.003,6.07, 15.702,6.07, 21.706,0.00s 6.003-15.859,0.00-21.93L 162.602,160.00L 322.538-6.163z"  />
<glyph unicode="&#x6a;" d="M 125.433-6.163c -6.003-6.07, -6.003-15.859,0.00-21.93s 15.702-6.07 21.706,0.00l 175.392,177.117c 6.003,6.07 6.003,15.882,0.00,21.93
	l -175.392,177.139c -6.003,6.07, -15.702,6.07, -21.706,0.00s -6.003-15.859,0.00-21.93L 285.369,160.00L 125.433-6.163z" />
<glyph unicode="&#x6b;" d="M 384.00,160.00l0.00-32.00 q0.00-13.25 -8.125-22.625t-21.125-9.375l-176.00,0.00 l 73.25-73.50q 9.50-9.00 9.50-22.50t-9.50-22.50l-18.75-19.00q-9.25-9.25 -22.50-9.25q-13.00,0.00 -22.75,9.25l-162.75,163.00q-9.25,9.25 -9.25,22.50q0.00,13.00 9.25,22.75l 162.75,162.50q 9.50,9.50 22.75,9.50q 13.00,0.00 22.50-9.50l 18.75-18.50q 9.50-9.50 9.50-22.75t-9.50-22.75l-73.25-73.25l 176.00,0.00 q 13.00,0.00 21.125-9.375 t 8.125-22.625z" horiz-adv-x="384"  />
<glyph unicode="&#x6c;" d="M 368.00,144.00q0.00-13.50 -9.25-22.75l-162.75-162.75q-9.75-9.25 -22.75-9.25q-12.75,0.00 -22.50,9.25l-18.75,18.75q-9.50,9.50 -9.50,22.75t 9.50,22.75l 73.25,73.25l-176.00,0.00 q-13.00,0.00 -21.125,9.375t-8.125,22.625l0.00,32.00 q0.00,13.25 8.125,22.625t 21.125,9.375l 176.00,0.00 l-73.25,73.50q-9.50,9.00 -9.50,22.50t 9.50,22.50l 18.75,18.75q 9.50,9.50 22.50,9.50q 13.25,0.00 22.75-9.50l 162.75-162.75q 9.25-8.75 9.25-22.50z" horiz-adv-x="384"  />
<glyph unicode="&#x6d;" d="M 156.75,248.00q0.00-3.25 -2.50-5.75l-98.25-98.25l 98.25-98.25q 2.50-2.50 2.50-5.75t-2.50-5.75l-12.50-12.50q-2.50-2.50 -5.75-2.50t-5.75,2.50l-116.50,116.50q-2.50,2.50 -2.50,5.75t 2.50,5.75l 116.50,116.50q 2.50,2.50 5.75,2.50t 5.75-2.50l 12.50-12.50q 2.50-2.50 2.50-5.75z" horiz-adv-x="160"  />
<glyph unicode="&#x6e;" d="M 148.75,144.00q0.00-3.25 -2.50-5.75l-116.50-116.50q-2.50-2.50 -5.75-2.50t-5.75,2.50l-12.50,12.50q-2.50,2.50 -2.50,5.75t 2.50,5.75l 98.25,98.25l-98.25,98.25q-2.50,2.50 -2.50,5.75t 2.50,5.75l 12.50,12.50q 2.50,2.50 5.75,2.50t 5.75-2.50l 116.50-116.50q 2.50-2.50 2.50-5.75z" horiz-adv-x="160"  />
<glyph unicode="&#x6f;" d="M 320.00,144.00l0.00,32.00 q0.00,6.50 -4.75,11.25t-11.25,4.75l-125.50,0.00 l 47.25,47.25q 4.75,4.75 4.75,11.25t-4.75,11.25l-22.75,22.75q-4.50,4.50 -11.25,4.50t-11.25-4.50l-90.50-90.50l-22.75-22.75q-4.50-4.50 -4.50-11.25t 4.50-11.25l 22.75-22.75l 90.50-90.50q 4.50-4.50 11.25-4.50t 11.25,4.50l 22.75,22.75q 4.50,4.50 4.50,11.25t-4.50,11.25l-47.25,47.25l 125.50,0.00 q 6.50,0.00 11.25,4.75t 4.75,11.25zM 384.00,160.00 q0.00-52.25 -25.75-96.375t-69.875-69.875t-96.375-25.75t-96.375,25.75t-69.875,69.875t-25.75,96.375t 25.75,96.375t 69.875,69.875t 96.375,25.75t 96.375-25.75t 69.875-69.875t 25.75-96.375z" horiz-adv-x="384"  />
<glyph unicode="&#x70;" d="M 321.25,160.00q0.00,6.75 -4.50,11.25l-22.75,22.75l-90.50,90.50q-4.50,4.50 -11.25,4.50t-11.25-4.50l-22.75-22.75q-4.50-4.50 -4.50-11.25t 4.50-11.25l 47.25-47.25l-125.50,0.00 q-6.50,0.00 -11.25-4.75t-4.75-11.25l0.00-32.00 q0.00-6.50 4.75-11.25t 11.25-4.75l 125.50,0.00 l-47.25-47.25q-4.75-4.75 -4.75-11.25t 4.75-11.25l 22.75-22.75q 4.50-4.50 11.25-4.50t 11.25,4.50l 90.50,90.50l 22.75,22.75q 4.50,4.50 4.50,11.25zM 384.00,160.00 q0.00-52.25 -25.75-96.375t-69.875-69.875t-96.375-25.75t-96.375,25.75t-69.875,69.875t-25.75,96.375t 25.75,96.375t 69.875,69.875t 96.375,25.75t 96.375-25.75t 69.875-69.875t 25.75-96.375z" horiz-adv-x="384"  />
<glyph unicode="&#x71;" d="M 185.50-9.25l-163.00,162.75q-9.25,9.25 -9.25,22.625t 9.25,22.625l 163.00,162.75q 9.25,9.25 22.625,9.25t 22.625-9.25l 18.75-18.75q 9.25-9.25 9.25-22.625t-9.25-22.625l-121.50-121.50l 121.50-121.25q 9.25-9.50 9.25-22.75t-9.25-22.50l-18.75-18.75q-9.25-9.25 -22.625-9.25t-22.625,9.25z" horiz-adv-x="288"  />
<glyph unicode="&#x72;" d="M 274.75,176.00q0.00-13.00 -9.25-22.75l-163.00-162.75q-9.25-9.25 -22.50-9.25t-22.50,9.25l-19.00,18.75q-9.25,9.75 -9.25,22.75q0.00,13.25 9.25,22.50l 121.50,121.50l-121.50,121.25q-9.25,9.75 -9.25,22.75q0.00,13.25 9.25,22.50l 19.00,18.75q 9.00,9.50 22.50,9.50t 22.50-9.50l 163.00-162.75q 9.25-9.25 9.25-22.50z" horiz-adv-x="288"  />
<glyph unicode="&#x73;" d="M 28.00,216.00L 224.00,216.00L 224.00,356.00L 420.00,160.00L 224.00-36.00L 224.00,104.00L 28.00,104.00 z"  />
<glyph unicode="&#x74;" d="M 420.00,104.00L 224.00,104.00L 224.00-36.00L 28.00,160.00L 224.00,356.00L 224.00,216.00L 420.00,216.00 z"  />
<glyph unicode="&#x75;" d="M 72.128,97.602l0.00,124.796 l 151.41,0.00 L 223.538,311.872 L 375.872,160.00l-152.32-151.872l0.00,89.474  M0.00,160.00
	c0.00-123.718, 100.282-224.00, 224.00-224.00s 224.00,100.282, 224.00,224.00S 347.718,384.00, 224.00,384.00S0.00,283.718,0.00,160.00z"  />
<glyph unicode="&#x76;" d="M 375.872,222.398l0.00-124.796 L 224.448,97.602 l0.00-89.474 L 72.128,160.00l 152.32,151.872l0.00-89.474  M 448.00,160.00
	c0.00,123.718-100.282,224.00-224.00,224.00S0.00,283.718,0.00,160.00s 100.282-224.00, 224.00-224.00S 448.00,36.282, 448.00,160.00z"  />
<glyph unicode="&#x77;" d="M 364.00,20.00l-84.00-84.00L 56.00,160.00L 280.00,384.00l 84.00-84.00L 224.00,160.00L 364.00,20.00z"  />
<glyph unicode="&#x78;" d="M 56.00,20.00l 84.00-84.00l 224.00,224.00L 140.00,384.00L 56.00,300.00l 140.00-140.00L 56.00,20.00z"  />
<glyph unicode="&#x79;" d="M 371.224,158.693c 0.056,0.131, 0.075,0.28, 0.131,0.411C 372.605,162.296, 373.333,165.712, 373.333,169.333s-0.728,7.037-1.979,10.229
		c-0.056,0.131-0.075,0.28-0.131,0.411c-1.419,3.472-3.509,6.589-6.123,9.203l-93.296,93.296c-10.939,10.939-28.653,10.939-39.592,0.00
		c-10.939-10.92-10.939-28.672,0.00-39.592L 277.741,197.333L 102.667,197.333 C 87.211,197.333, 74.667,184.808, 74.667,169.333S 87.211,141.333, 102.667,141.333l 175.075,0.00 l-45.528-45.528
		c-10.939-10.92-10.939-28.672,0.00-39.592C 237.664,50.725, 244.832,48.00, 252.00,48.00s 14.336,2.725, 19.805,8.195l 93.296,93.296
		C 367.715,152.104, 369.805,155.24, 371.224,158.693z"  />
<glyph unicode="&#x7a;" d="M 76.776,179.973c-0.056-0.131-0.075-0.28-0.131-0.411C 75.395,176.371, 74.667,172.955, 74.667,169.333s 0.728-7.037, 1.979-10.229
		c 0.056-0.131, 0.075-0.28, 0.131-0.411c 1.419-3.472, 3.509-6.589, 6.123-9.203l 93.296-93.296c 10.939-10.939, 28.653-10.939, 39.592,0.00
		c 10.939,10.92, 10.939,28.672,0.00,39.592L 170.259,141.333L 345.333,141.333 c 15.456,0.00, 28.00,12.525, 28.00,28.00S 360.789,197.333, 345.333,197.333L 170.259,197.333 l 45.528,45.528
		c 10.939,10.92, 10.939,28.672,0.00,39.592C 210.336,287.941, 203.168,290.667, 196.00,290.667S 181.664,287.941, 176.195,282.472l-93.296-93.296
		C 80.285,186.563, 78.195,183.427, 76.776,179.973z"  />
<glyph unicode="&#x65;" d="M 261.333,309.333L 317.333,253.333L 233.333,169.333L 317.333,85.333L 261.333,29.333L 121.333,169.333 			z"  />
<glyph unicode="&#x66;" d="M 168.00,309.333L 112.00,253.333L 196.00,169.333L 112.00,85.333L 168.00,29.333L 308.00,169.333 			z"  />
<glyph unicode="&#x33;" d="M 224.00,384.00 C 100.289,384.00 0.00,283.711 0.00,160.00 C 0.00,36.289 100.289-64.00 224.00-64.00 C 347.711-64.00 448.00,36.289 448.00,160.00 C 448.00,283.711 347.711,384.00 224.00,384.00 z M 250.25,289.50 L 302.75,237.00 L 224.00,158.25 L 302.75,79.50 L 250.25,27.00 L 119.00,158.25 L 250.25,289.50 z "  />
<glyph unicode="&#x34;" d="M 224.00,384.00 C 100.289,384.00 0.00,283.711 0.00,160.00 C 0.00,36.289 100.289-64.00 224.00-64.00 C 347.711-64.00 448.00,36.289 448.00,160.00 C 448.00,283.711 347.711,384.00 224.00,384.00 z M 199.50,289.50 L 330.75,158.25 L 199.50,27.00 L 147.00,79.50 L 225.75,158.25 L 147.00,237.00 L 199.50,289.50 z "  />
<glyph unicode="&#x35;" d="M 224.00,384.00 C 100.289,384.00 0.00,283.711 0.00,160.00 C 0.00,36.289 100.289-64.00 224.00-64.00 C 347.711-64.00 448.00,36.289 448.00,160.00 C 448.00,283.711 347.711,384.00 224.00,384.00 z M 262.941,286.434 C 265.181,286.434 267.309,285.23 269.50,282.934 C 273.875,278.356 274.106,273.519 269.941,268.934 L 170.191,165.25 L 269.941,61.559 C 274.106,56.981 273.875,52.585 269.50,48.00 C 265.125,43.415 260.96,43.415 256.375,48.00 L 146.125,158.684 C 141.953,163.276 141.953,167.672 146.125,172.25 L 256.375,282.934 C 258.671,285.23 260.694,286.441 262.941,286.434 z "  />
<glyph unicode="&#x36;" d="M 224.00,384.00 C 100.289,384.00 0.00,283.711 0.00,160.00 C 0.00,36.289 100.289-64.00 224.00-64.00 C 347.711-64.00 448.00,36.289 448.00,160.00 C 448.00,283.711 347.711,384.00 224.00,384.00 z M 181.125,286.434 C 183.365,286.441 185.829,285.23 188.125,282.934 L 297.941,172.25 C 302.106,167.672 302.106,163.276 297.941,158.684 L 188.125,48.00 C 183.54,43.415 178.934,43.415 174.566,48.00 C 170.184,52.585 169.953,56.981 174.125,61.559 L 274.316,165.25 L 174.125,268.934 C 169.953,273.519 170.184,278.356 174.566,282.934 C 176.75,285.23 178.885,286.434 181.125,286.434 z "  />
<glyph unicode="&#x37;" d="M 224.00,384.00 C 100.289,384.00 0.00,283.711 0.00,160.00 C 0.00,36.289 100.289-64.00 224.00-64.00 C 347.711-64.00 448.00,36.289 448.00,160.00 C 448.00,283.711 347.711,384.00 224.00,384.00 z M 255.066,284.25 C 260.687,284.25 265.314,282.311 269.066,278.559 L 281.316,266.75 C 285.061,262.998 286.559,258.378 286.566,252.75 C 286.559,247.122 285.061,242.061 281.316,238.309 L 204.75,162.184 L 281.316,86.50 C 285.061,82.328 286.559,77.477 286.566,72.059 C 286.559,66.648 285.061,62.252 281.316,58.50 L 269.066,46.684 C 265.314,42.932 260.687,41.00 255.066,41.00 C 249.438,41.00 244.811,42.932 241.066,46.684 L 138.691,148.625 C 134.939,152.37 133.00,156.997 133.00,162.625 C 133.00,168.253 134.939,172.88 138.691,176.625 L 241.066,278.559 C 244.811,282.311 249.438,284.25 255.066,284.25 z "  />
<glyph unicode="&#x38;" d="M 224.00,384.00 C 100.289,384.00 0.00,283.711 0.00,160.00 C 0.00,36.289 100.289-64.00 224.00-64.00 C 347.711-64.00 448.00,36.289 448.00,160.00 C 448.00,283.711 347.711,384.00 224.00,384.00 z M 192.941,284.684 C 198.772,284.684 203.161,282.724 206.50,278.559 L 309.316,176.625 C 313.061,172.88 314.559,168.477 314.566,163.059 C 314.559,157.648 313.061,152.79 309.316,148.625 L 206.50,46.684 C 202.748,42.932 198.352,41.00 192.941,41.00 C 187.523,41.00 182.693,42.932 178.941,46.684 L 166.691,58.50 C 162.939,62.672 161.00,67.523 161.00,72.934 C 161.00,78.352 162.939,82.748 166.691,86.50 L 242.816,163.059 L 166.691,238.309 C 162.939,242.481 161.00,247.332 161.00,252.75 C 161.00,258.168 162.939,262.998 166.691,266.75 L 178.941,278.559 C 182.273,282.724 187.103,284.684 192.941,284.684 z "  />
<glyph unicode="&#x39;" d="M 0.00,384.00 L 0.00-64.00 L 448.00-64.00 L 448.00,384.00 L 0.00,384.00 z M 257.25,296.50 L 309.75,244.00 L 231.00,165.25 L 309.75,86.50 L 257.25,34.00 L 126.00,165.25 L 257.25,296.50 z "  />
<glyph unicode="&#x30;" d="M 0.00,384.00 L 0.00-64.00 L 448.00-64.00 L 448.00,384.00 L 0.00,384.00 z M 198.191,296.50 L 329.441,165.25 L 198.191,34.00 L 145.691,86.50 L 224.441,165.25 L 145.691,244.00 L 198.191,296.50 z "  />
<glyph unicode="&#x31;" d="M 0.00,384.00 L 0.00-64.00 L 448.00-64.00 L 448.00,384.00 L 0.00,384.00 z M 287.875,300.434 C 290.563,300.434 293.125,298.81 295.75,296.059 C 301.00,290.564 301.189,285.37 296.191,279.875 L 175.875,155.184 L 296.191,30.934 C 301.189,25.439 301.00,19.818 295.75,14.309 C 290.50,8.807 285.068,8.807 279.566,14.309 L 147.441,146.875 C 142.436,152.377 142.436,158.005 147.441,163.50 L 279.566,296.059 C 282.317,298.81 285.187,300.441 287.875,300.434 z "  />
<glyph unicode="&#x32;" d="M 0.00,384.00 L 0.00-64.00 L 448.00-64.00 L 448.00,384.00 L 0.00,384.00 z M 169.75,300.434 C 172.438,300.441 175.308,298.81 178.066,296.059 L 310.191,163.50 C 315.189,158.005 315.189,152.377 310.191,146.875 L 178.066,14.309 C 172.557,8.807 167.125,8.807 161.875,14.309 C 156.625,19.818 156.436,25.439 161.441,30.934 L 281.316,155.184 L 161.441,279.875 C 156.436,285.37 156.625,290.564 161.875,296.059 C 164.50,298.81 167.062,300.434 169.75,300.434 z "  />
<glyph unicode="&#x21;" d="M 0.00,384.00 L 0.00-64.00 L 448.00-64.00 L 448.00,384.00 L 0.00,384.00 z M 276.066,314.00 C 283.094,314.00 288.876,311.683 293.566,307.00 L 308.441,292.125 C 313.124,287.442 315.434,281.66 315.441,274.625 C 315.434,267.59 313.124,261.808 308.441,257.125 L 213.066,161.75 L 308.441,67.25 C 313.124,62.035 315.434,56.078 315.441,49.309 C 315.434,42.547 313.124,36.94 308.441,32.25 L 293.566,17.375 C 288.876,12.685 283.094,10.375 276.066,10.375 C 269.031,10.375 263.249,12.685 258.566,17.375 L 130.375,144.684 C 125.692,149.374 123.375,155.156 123.375,162.184 C 123.375,169.219 125.692,175.001 130.375,179.684 L 258.566,307.00 C 263.249,311.683 269.031,314.00 276.066,314.00 z "  />
<glyph unicode="&#x23;" d="M 0.00,384.00 L 0.00-64.00 L 448.00-64.00 L 448.00,384.00 L 0.00,384.00 z M 177.191,314.875 C 184.478,314.875 190.078,312.208 194.25,307.00 L 322.441,179.684 C 327.124,175.001 329.434,169.394 329.441,162.625 C 329.434,155.856 327.124,149.892 322.441,144.684 L 194.25,17.375 C 189.56,12.685 183.953,10.375 177.191,10.375 C 170.422,10.375 164.381,12.685 159.691,17.375 L 144.375,32.25 C 139.692,37.465 137.375,43.415 137.375,50.184 C 137.375,56.953 139.692,62.56 144.375,67.25 L 239.75,162.625 L 144.375,257.125 C 139.692,262.34 137.375,268.29 137.375,275.059 C 137.375,281.835 139.692,287.442 144.375,292.125 L 159.691,307.00 C 163.856,312.208 169.897,314.875 177.191,314.875 z "  />
<glyph unicode="&#x20;" horiz-adv-x="224" />
<glyph class="hidden" unicode="&#xf000;" d="M0,384L 448 -64L0 -64 z" horiz-adv-x="0" />
</font>
</defs>
</svg>
